<svg width="46" height="43" viewBox="0 0 46 43" fill="none" xmlns="http://www.w3.org/2000/svg">
<g filter="url(#filter0_d_1_266)">
<g clip-path="url(#clip0_1_266)">
<path d="M30.25 7.5H26.5C26.5 5.51088 25.7098 3.60322 24.3033 2.1967C22.8968 0.790176 20.9891 0 19 0C17.0109 0 15.1032 0.790176 13.6967 2.1967C12.2902 3.60322 11.5 5.51088 11.5 7.5H7.75C6.75544 7.5 5.80161 7.89509 5.09835 8.59835C4.39509 9.30161 4 10.2554 4 11.25L4 23.75C4.00198 25.407 4.6611 26.9956 5.83277 28.1672C7.00445 29.3389 8.59301 29.998 10.25 30H21.5C21.8315 30 22.1495 29.8683 22.3839 29.6339C22.6183 29.3995 22.75 29.0815 22.75 28.75C22.75 28.4185 22.6183 28.1005 22.3839 27.8661C22.1495 27.6317 21.8315 27.5 21.5 27.5H10.25C9.25544 27.5 8.30161 27.1049 7.59835 26.4017C6.89509 25.6984 6.5 24.7446 6.5 23.75V11.25C6.5 10.9185 6.6317 10.6005 6.86612 10.3661C7.10054 10.1317 7.41848 10 7.75 10H11.5V12.5C11.5 12.8315 11.6317 13.1495 11.8661 13.3839C12.1005 13.6183 12.4185 13.75 12.75 13.75C13.0815 13.75 13.3995 13.6183 13.6339 13.3839C13.8683 13.1495 14 12.8315 14 12.5V10H24V12.5C24 12.8315 24.1317 13.1495 24.3661 13.3839C24.6005 13.6183 24.9185 13.75 25.25 13.75C25.5815 13.75 25.8995 13.6183 26.1339 13.3839C26.3683 13.1495 26.5 12.8315 26.5 12.5V10H30.25C30.5815 10 30.8995 10.1317 31.1339 10.3661C31.3683 10.6005 31.5 10.9185 31.5 11.25V17.5C31.5 17.8315 31.6317 18.1495 31.8661 18.3839C32.1005 18.6183 32.4185 18.75 32.75 18.75C33.0815 18.75 33.3995 18.6183 33.6339 18.3839C33.8683 18.1495 34 17.8315 34 17.5V11.25C34 10.2554 33.6049 9.30161 32.9017 8.59835C32.1984 7.89509 31.2446 7.5 30.25 7.5ZM14 7.5C14 6.17392 14.5268 4.90215 15.4645 3.96447C16.4021 3.02678 17.6739 2.5 19 2.5C20.3261 2.5 21.5979 3.02678 22.5355 3.96447C23.4732 4.90215 24 6.17392 24 7.5H14Z" fill="#224F34"/>
</g>
<g filter="url(#filter1_d_1_266)">
<circle cx="31" cy="27" r="5" fill="#10FF70"/>
</g>
</g>
<defs>
<filter id="filter0_d_1_266" x="0" y="0" width="40" height="40" filterUnits="userSpaceOnUse" color-interpolation-filters="sRGB">
<feFlood flood-opacity="0" result="BackgroundImageFix"/>
<feColorMatrix in="SourceAlpha" type="matrix" values="0 0 0 0 0 0 0 0 0 0 0 0 0 0 0 0 0 0 127 0" result="hardAlpha"/>
<feOffset dy="4"/>
<feGaussianBlur stdDeviation="2"/>
<feComposite in2="hardAlpha" operator="out"/>
<feColorMatrix type="matrix" values="0 0 0 0 0 0 0 0 0 0 0 0 0 0 0 0 0 0 0.25 0"/>
<feBlend mode="normal" in2="BackgroundImageFix" result="effect1_dropShadow_1_266"/>
<feBlend mode="normal" in="SourceGraphic" in2="effect1_dropShadow_1_266" result="shape"/>
</filter>
<filter id="filter1_d_1_266" x="18" y="15" width="28" height="28" filterUnits="userSpaceOnUse" color-interpolation-filters="sRGB">
<feFlood flood-opacity="0" result="BackgroundImageFix"/>
<feColorMatrix in="SourceAlpha" type="matrix" values="0 0 0 0 0 0 0 0 0 0 0 0 0 0 0 0 0 0 127 0" result="hardAlpha"/>
<feOffset dx="1" dy="2"/>
<feGaussianBlur stdDeviation="4.5"/>
<feComposite in2="hardAlpha" operator="out"/>
<feColorMatrix type="matrix" values="0 0 0 0 0 0 0 0 0 0 0 0 0 0 0 0 0 0 0.15 0"/>
<feBlend mode="normal" in2="BackgroundImageFix" result="effect1_dropShadow_1_266"/>
<feBlend mode="normal" in="SourceGraphic" in2="effect1_dropShadow_1_266" result="shape"/>
</filter>
<clipPath id="clip0_1_266">
<rect width="30" height="30" fill="white" transform="translate(4)"/>
</clipPath>
</defs>
</svg>
